<svg version="1.1" id="Layer_1" xmlns="http://www.w3.org/2000/svg" xmlns:xlink="http://www.w3.org/1999/xlink" x="0px" y="0px"
	 width="100%" viewBox="0 0 2000 1500" enable-background="new 0 0 2000 1500" xml:space="preserve">
<path fill="#FFBE79" opacity="1.000000" stroke="none" 
	d="
M1025.000000,1501.000000 
	C683.333435,1501.000000 342.166870,1501.000000 1.000229,1501.000000 
	C1.000153,1001.000244 1.000153,501.000488 1.000076,1.000564 
	C667.666199,1.000376 1334.332397,1.000376 2000.999023,1.000188 
	C2000.999268,500.999390 2000.999268,1000.998779 2000.999634,1500.999023 
	C1675.833374,1501.000000 1350.666626,1501.000000 1025.000000,1501.000000 
M1181.943604,793.556702 
	C1175.567627,783.054016 1170.164917,771.786255 1162.626587,762.197388 
	C1142.895630,737.099487 1115.869385,722.641907 1086.062988,712.841919 
	C1048.458862,700.478027 1009.556519,696.639160 970.296997,696.380188 
	C905.302673,695.951355 840.303650,696.229919 775.306641,696.226013 
	C773.702698,696.225952 772.098694,696.408630 770.507935,696.505310 
	C770.507935,881.571228 770.507935,1066.119263 770.507935,1250.603882 
	C819.825012,1250.603882 868.724976,1250.603882 918.128418,1250.603882 
	C918.128418,1182.629150 918.128418,1115.048950 918.128418,1046.977539 
	C929.755249,1046.977539 940.894287,1047.271484 952.005676,1046.845215 
	C957.052368,1046.651611 959.576721,1048.332153 961.924438,1052.779053 
	C995.904541,1117.140869 1030.126587,1181.374878 1064.149170,1245.714478 
	C1066.179932,1249.554810 1068.280273,1251.145020 1072.857300,1251.126953 
	C1123.687622,1250.925659 1174.519043,1251.000122 1225.350098,1251.000122 
	C1227.090454,1251.000122 1228.830688,1251.000122 1231.587280,1251.000122 
	C1185.341064,1173.464478 1139.654175,1096.866455 1093.722168,1019.857666 
	C1095.681274,1018.768433 1097.281128,1017.966553 1098.793335,1017.024048 
	C1109.528931,1010.331726 1120.619629,1004.133362 1130.897217,996.797119 
	C1157.534912,977.783142 1178.917358,954.321167 1188.114380,922.077637 
	C1191.650391,909.681274 1193.958496,896.733765 1195.065308,883.885681 
	C1197.714355,853.133240 1194.195923,823.038269 1181.943604,793.556702 
M1080.254028,388.759766 
	C1090.592041,370.685394 1094.632202,351.374847 1092.047119,330.636627 
	C1086.299072,284.523956 1043.996094,243.415558 987.681274,251.763245 
	C936.426697,259.360809 904.051636,303.631409 910.051208,355.307068 
	C914.906311,397.124725 953.448975,432.635315 995.526733,434.015350 
	C1032.139648,435.216156 1060.178589,420.155518 1080.254028,388.759766 
z"/>
<path fill="#BA3B0A" opacity="1.000000" stroke="none" 
	d="
M1182.066406,793.918213 
	C1194.195923,823.038269 1197.714355,853.133240 1195.065308,883.885681 
	C1193.958496,896.733765 1191.650391,909.681274 1188.114380,922.077637 
	C1178.917358,954.321167 1157.534912,977.783142 1130.897217,996.797119 
	C1120.619629,1004.133362 1109.528931,1010.331726 1098.793335,1017.024048 
	C1097.281128,1017.966553 1095.681274,1018.768433 1093.722168,1019.857666 
	C1139.654175,1096.866455 1185.341064,1173.464478 1231.587280,1251.000122 
	C1228.830688,1251.000122 1227.090454,1251.000122 1225.350098,1251.000122 
	C1174.519043,1251.000122 1123.687622,1250.925659 1072.857300,1251.126953 
	C1068.280273,1251.145020 1066.179932,1249.554810 1064.149170,1245.714478 
	C1030.126587,1181.374878 995.904541,1117.140869 961.924438,1052.779053 
	C959.576721,1048.332153 957.052368,1046.651611 952.005676,1046.845215 
	C940.894287,1047.271484 929.755249,1046.977539 918.128418,1046.977539 
	C918.128418,1115.048950 918.128418,1182.629150 918.128418,1250.603882 
	C868.724976,1250.603882 819.825012,1250.603882 770.507935,1250.603882 
	C770.507935,1066.119263 770.507935,881.571228 770.507935,696.505310 
	C772.098694,696.408630 773.702698,696.225952 775.306641,696.226013 
	C840.303650,696.229919 905.302673,695.951355 970.296997,696.380188 
	C1009.556519,696.639160 1048.458862,700.478027 1086.062988,712.841919 
	C1115.869385,722.641907 1142.895630,737.099487 1162.626587,762.197388 
	C1170.164917,771.786255 1175.567627,783.054016 1182.066406,793.918213 
M918.207703,945.161499 
	C918.754028,945.484741 919.305176,946.098511 919.845886,946.089417 
	C942.305115,945.709900 964.908081,946.709656 987.183105,944.463135 
	C1011.992310,941.960938 1030.239624,928.526794 1038.840454,904.083679 
	C1043.846436,889.857056 1044.823730,875.085205 1043.807495,860.210205 
	C1041.749878,830.094971 1026.485352,811.600769 997.316223,803.857239 
	C971.648254,797.043274 945.384827,799.576111 919.303284,799.441345 
	C919.025635,799.439941 918.746277,799.757446 918.033569,800.188782 
	C918.033569,848.028259 918.033569,896.125366 918.207703,945.161499 
z"/>
<path fill="#BA3C0B" opacity="1.000000" stroke="none" 
	d="
M1080.081787,389.081238 
	C1060.178589,420.155518 1032.139648,435.216156 995.526733,434.015350 
	C953.448975,432.635315 914.906311,397.124725 910.051208,355.307068 
	C904.051636,303.631409 936.426697,259.360809 987.681274,251.763245 
	C1043.996094,243.415558 1086.299072,284.523956 1092.047119,330.636627 
	C1094.632202,351.374847 1090.592041,370.685394 1080.081787,389.081238 
M959.998901,334.694519 
	C959.941223,339.325775 959.310425,344.034882 959.926758,348.574646 
	C962.397461,366.773651 976.207397,380.517517 994.659119,383.666901 
	C1011.869812,386.604553 1029.708374,377.525238 1038.050903,361.581665 
	C1046.405029,345.615692 1043.381104,326.000061 1030.659424,313.105469 
	C1008.138977,290.278778 967.793152,300.121796 959.998901,334.694519 
z"/>
<path fill="#FFBE79" opacity="1.000000" stroke="none" 
	d="
M918.120605,944.691956 
	C918.033569,896.125366 918.033569,848.028259 918.033569,800.188782 
	C918.746277,799.757446 919.025635,799.439941 919.303284,799.441345 
	C945.384827,799.576111 971.648254,797.043274 997.316223,803.857239 
	C1026.485352,811.600769 1041.749878,830.094971 1043.807495,860.210205 
	C1044.823730,875.085205 1043.846436,889.857056 1038.840454,904.083679 
	C1030.239624,928.526794 1011.992310,941.960938 987.183105,944.463135 
	C964.908081,946.709656 942.305115,945.709900 919.845886,946.089417 
	C919.305176,946.098511 918.754028,945.484741 918.120605,944.691956 
z"/>
<path fill="#FFBE79" opacity="1.000000" stroke="none" 
	d="
M960.054810,334.275696 
	C967.793152,300.121796 1008.138977,290.278778 1030.659424,313.105469 
	C1043.381104,326.000061 1046.405029,345.615692 1038.050903,361.581665 
	C1029.708374,377.525238 1011.869812,386.604553 994.659119,383.666901 
	C976.207397,380.517517 962.397461,366.773651 959.926758,348.574646 
	C959.310425,344.034882 959.941223,339.325775 960.054810,334.275696 
z"/>
</svg>